<?xml version="1.0" standalone="no"?>
<!DOCTYPE svg PUBLIC "-//W3C//DTD SVG 20010904//EN"
 "http://www.w3.org/TR/2001/REC-SVG-20010904/DTD/svg10.dtd">
<svg version="1.0" xmlns="http://www.w3.org/2000/svg"
 width="1280.000000pt" height="1280.000000pt" viewBox="0 0 1280.000000 1280.000000"
 preserveAspectRatio="xMidYMid meet">
<metadata>
Created by potrace 1.15, written by Peter Selinger 2001-2017
</metadata>
<g transform="translate(0.000000,1280.000000) scale(0.100000,-0.100000)"
fill="#4caf50" stroke="none">
<path d="M0 6400 l0 -6400 6400 0 6400 0 0 6400 0 6400 -6400 0 -6400 0 0
-6400z m6850 5999 c1273 -96 2453 -579 3443 -1412 177 -148 564 -538 713 -717
812 -976 1274 -2093 1390 -3360 24 -254 24 -767 0 -1020 -41 -447 -116 -838
-237 -1238 -678 -2235 -2610 -3890 -4919 -4211 -538 -75 -1152 -75 -1675 0
-1137 162 -2169 624 -3056 1370 -173 145 -564 537 -703 704 -838 1007 -1304
2149 -1407 3450 -16 193 -16 677 0 870 102 1292 570 2443 1397 3436 258 311
677 705 1018 959 1155 860 2597 1278 4036 1169z"/>
<path d="M6000 12160 c-1336 -103 -2541 -627 -3522 -1534 -172 -159 -488 -493
-488 -516 0 -4 39 -40 87 -79 l86 -72 31 30 31 30 35 -31 c19 -17 58 -53 87
-80 l52 -49 -77 -92 c-158 -189 -332 -436 -470 -668 -102 -173 -146 -259 -135
-269 15 -14 179 -100 191 -100 6 0 24 23 38 52 41 81 180 312 256 426 364 544
854 1034 1405 1403 74 50 104 65 111 56 5 -7 33 -52 62 -101 51 -86 53 -90 34
-103 -10 -8 -69 -49 -131 -91 -200 -138 -529 -405 -540 -438 -3 -9 130 -165
146 -171 3 -1 56 41 116 93 193 169 439 347 667 483 l86 52 -119 201 c-65 111
-119 205 -119 208 0 11 359 191 490 246 63 26 117 50 119 51 2 2 -15 52 -39
112 l-43 110 -46 -19 c-273 -108 -601 -281 -886 -468 -309 -202 -539 -387
-792 -635 l-163 -160 -85 78 c-47 42 -85 80 -85 85 0 4 73 79 163 166 884 865
2026 1403 3264 1538 161 18 607 39 635 30 16 -5 17 -15 13 -92 -3 -48 -7 -153
-10 -234 l-5 -148 37 0 c92 0 382 -22 529 -40 274 -33 664 -112 664 -134 0 -6
-13 -58 -30 -116 -16 -58 -30 -106 -30 -107 0 0 -24 5 -52 13 -74 20 -350 75
-354 71 -2 -2 -22 -106 -44 -232 -22 -125 -41 -230 -43 -231 -1 -2 -45 3 -97
11 -222 32 -335 39 -625 39 -179 0 -346 -5 -415 -13 -153 -17 -301 -39 -307
-45 -3 -3 11 -107 30 -232 20 -126 34 -231 32 -235 -3 -3 -27 -9 -54 -13 -26
-3 -113 -22 -192 -42 -946 -232 -1762 -800 -2301 -1604 -50 -74 -92 -137 -94
-138 -1 -2 -91 46 -198 107 -108 61 -201 112 -207 113 -17 4 -85 -114 -194
-337 -196 -403 -313 -767 -385 -1207 -62 -378 -68 -909 -14 -1298 l6 -45 -117
-21 c-80 -14 -118 -17 -121 -10 -10 29 -35 303 -45 483 -20 386 23 855 114
1241 l25 102 -57 16 c-31 9 -78 22 -105 30 -66 19 -64 19 -76 -23 -62 -222
-121 -635 -142 -991 l-3 -44 -237 2 -238 1 0 -153 c0 -236 39 -720 59 -739 3
-4 57 1 119 9 l114 16 -6 38 c-15 94 -36 315 -42 445 l-7 143 121 0 122 0 0
-59 c0 -176 44 -544 95 -797 31 -150 134 -536 147 -549 4 -5 197 57 217 69 5
3 -7 54 -25 113 -43 134 -108 392 -101 400 3 2 108 25 234 51 125 25 229 46
230 46 1 1 -5 30 -12 66 -8 36 -23 130 -34 210 -97 697 -10 1417 250 2072 49
124 179 398 189 398 6 0 186 -96 199 -106 2 -2 -29 -74 -69 -160 -220 -476
-331 -918 -362 -1441 -34 -579 78 -1203 313 -1738 l41 -94 51 23 c29 13 77 35
108 49 l57 26 -53 123 c-130 304 -221 651 -265 1008 -6 47 -13 204 -17 349
l-6 264 139 -7 c76 -3 185 -9 241 -12 l101 -7 6 44 c3 24 10 89 16 144 48 434
220 922 457 1292 18 29 33 56 33 60 0 4 -43 36 -95 70 l-94 63 -29 -43 c-52
-75 -153 -257 -204 -366 -140 -298 -243 -634 -289 -939 l-13 -84 -58 6 c-32 3
-85 9 -118 12 -35 3 -60 11 -60 17 0 38 46 283 75 403 254 1033 970 1920 1930
2390 426 208 871 328 1333 360 l102 7 0 -39 c0 -21 3 -76 6 -120 l7 -82 -74
-6 c-260 -24 -422 -49 -614 -97 -119 -30 -377 -112 -404 -128 -12 -8 -7 -27
24 -111 22 -55 42 -103 46 -105 3 -3 87 22 185 54 303 100 577 147 917 158
l197 6 0 37 c0 20 3 71 6 113 l7 77 -37 0 -36 0 0 98 c0 53 3 108 7 121 l6 24
136 -7 c425 -20 894 -139 1309 -332 56 -26 102 -51 102 -56 0 -7 -94 -190
-106 -206 -1 -2 -24 8 -52 22 l-49 25 -47 -102 c-25 -56 -46 -105 -46 -109 0
-3 57 -36 127 -73 137 -71 311 -182 436 -277 43 -33 82 -58 86 -56 5 2 34 35
66 73 32 39 65 77 72 86 12 14 3 24 -79 86 -51 39 -139 101 -195 138 -57 37
-103 72 -103 78 0 15 100 197 109 197 14 0 187 -113 296 -194 276 -206 579
-508 762 -761 l21 -30 69 48 c37 26 81 58 97 71 l30 23 -70 89 c-545 700
-1280 1180 -2131 1393 -134 34 -352 73 -513 93 -105 13 -583 18 -750 8 l-84
-5 -19 113 c-10 63 -17 115 -15 117 15 15 308 27 542 22 347 -7 596 -39 911
-118 125 -32 398 -118 471 -150 l42 -18 41 106 c23 57 41 108 41 113 0 4 -15
13 -32 20 -176 63 -346 117 -458 146 -74 20 -138 39 -141 42 -7 7 32 217 42
226 7 8 280 -65 429 -114 383 -127 802 -332 1106 -540 l40 -28 63 99 c35 55
62 101 60 103 -2 2 -49 33 -104 69 -306 199 -682 382 -1045 507 -52 18 -98 36
-102 39 -6 5 47 218 57 229 1 1 18 -5 39 -13 29 -12 37 -13 41 -3 3 7 20 59
39 114 l34 101 -117 36 c-339 105 -724 181 -1051 207 -74 6 -150 14 -168 16
l-33 5 3 117 3 117 60 -3 c218 -10 544 -55 790 -107 886 -190 1696 -585 2405
-1175 157 -130 555 -528 682 -680 770 -928 1207 -2014 1288 -3198 11 -173 13
-529 3 -647 l-6 -77 -86 7 c-47 3 -100 8 -117 11 l-30 6 4 243 c14 727 -112
1404 -388 2091 -51 128 -245 531 -273 568 -13 18 -18 17 -115 -38 l-101 -58
74 -141 c132 -253 256 -553 338 -818 48 -152 110 -390 104 -396 -3 -2 -99 -24
-214 -48 -114 -25 -218 -47 -229 -50 l-22 -5 24 -112 c45 -210 73 -451 89
-748 2 -52 5 -96 5 -97 0 -2 52 -3 117 -3 l116 0 -6 163 c-6 166 -27 376 -51
527 -8 47 -12 87 -10 89 4 5 228 50 231 47 7 -7 45 -298 58 -443 24 -270 19
-745 -11 -974 l-5 -46 101 -12 c131 -14 140 -14 140 5 0 14 10 15 78 10 42 -4
96 -9 120 -13 l43 -5 -6 -47 c-93 -685 -252 -1219 -535 -1796 -478 -972 -1241
-1788 -2190 -2343 -162 -94 -208 -118 -214 -111 -2 2 -27 50 -54 105 l-51 102
122 67 c783 434 1481 1106 1951 1882 l55 93 -22 14 c-17 11 -150 87 -179 102
-3 2 -21 -22 -38 -53 -18 -32 -70 -116 -117 -186 -61 -94 -87 -126 -96 -120
-7 6 -133 99 -282 208 -148 109 -273 201 -277 204 -4 4 22 51 58 105 88 131
191 313 269 471 35 72 65 136 67 143 3 10 -180 102 -203 102 -5 0 -15 -13 -24
-30 l-15 -30 -103 51 c-56 28 -104 53 -106 55 -1 1 20 56 47 121 142 333 239
709 282 1103 14 125 24 542 13 556 -5 6 -48 9 -119 6 l-111 -4 -6 -252 c-7
-304 -33 -506 -98 -773 -136 -560 -412 -1090 -793 -1525 l-75 -85 88 -81 88
-81 79 91 c154 177 352 453 446 625 22 40 43 75 46 77 9 6 212 -91 212 -100 0
-5 -23 -49 -52 -99 -257 -448 -613 -860 -1023 -1185 -44 -35 -80 -69 -79 -75
1 -9 97 -148 124 -178 9 -10 188 132 350 277 138 125 361 363 467 500 l22 28
93 -68 c51 -37 95 -69 97 -70 5 -4 -50 -73 -133 -168 l-60 -68 54 -49 c30 -27
71 -63 91 -79 l37 -30 103 124 103 124 51 -36 c28 -20 70 -50 93 -67 23 -16
41 -35 39 -42 -4 -23 -224 -279 -358 -417 -394 -408 -860 -751 -1356 -1000
l-132 -66 33 -72 c19 -40 64 -135 100 -212 36 -76 66 -142 66 -146 0 -9 -244
-114 -421 -181 -883 -333 -1886 -429 -2834 -269 -560 94 -1049 253 -1555 506
-194 97 -506 276 -539 309 -13 13 -7 25 49 107 35 51 64 94 65 95 1 1 82 -46
181 -105 649 -387 1383 -634 2129 -716 214 -24 531 -37 720 -31 235 8 216 1
210 88 -3 39 -8 91 -11 114 l-5 41 -227 -5 c-244 -6 -477 6 -731 37 -84 11
-155 21 -156 22 -2 2 14 106 36 233 21 126 36 231 33 234 -3 3 -60 15 -127 28
-180 32 -387 84 -387 96 0 6 14 58 32 114 34 114 32 112 112 88 79 -24 334
-74 483 -95 425 -59 896 -52 1332 21 69 12 130 25 134 29 6 5 -28 210 -38 227
0 1 -48 -6 -105 -17 -472 -84 -972 -84 -1450 1 -133 23 -344 75 -480 118 -52
16 -98 26 -101 23 -4 -4 -39 -105 -79 -225 -72 -218 -72 -219 -98 -212 -14 3
-94 33 -176 65 -83 33 -153 56 -157 52 -9 -11 -90 -204 -87 -208 11 -10 254
-103 390 -148 151 -51 463 -136 498 -136 39 -1 41 -12 20 -125 -11 -59 -22
-111 -25 -113 -13 -13 -315 63 -540 135 -456 146 -1015 430 -1388 705 -65 48
-69 50 -82 32 -7 -11 -38 -53 -69 -94 l-55 -75 35 -30 34 -30 -66 -98 c-41
-60 -70 -94 -77 -90 -42 24 -269 204 -389 307 -170 146 -484 464 -619 626
-178 213 -415 541 -405 559 4 5 50 35 103 66 81 47 98 54 105 41 7 -13 24 -5
101 45 51 33 95 64 99 68 4 4 -7 29 -26 56 -36 55 -144 236 -194 327 l-32 58
107 53 107 54 74 -131 c88 -155 278 -446 292 -446 7 0 153 98 189 127 2 1 -8
20 -22 40 -32 44 -35 40 84 116 l87 56 33 -47 c46 -66 206 -267 223 -281 12
-10 45 13 193 138 l178 150 136 -142 c118 -123 316 -308 352 -329 8 -4 41 30
86 85 l73 90 -53 46 c-218 183 -622 633 -593 660 5 5 49 36 98 70 l89 61 50
-68 c299 -399 714 -746 1165 -975 133 -68 432 -197 456 -197 6 0 79 220 75
225 -2 1 -49 20 -104 40 -137 51 -365 161 -504 245 -460 275 -839 661 -1115
1132 -65 111 -157 300 -150 307 2 3 100 46 217 96 116 51 211 96 210 101 -1 5
-21 56 -43 114 -75 195 -133 432 -161 655 -18 144 -16 473 5 625 15 109 51
298 59 306 1 1 34 -6 72 -17 109 -31 387 -100 389 -97 1 2 13 41 26 88 82 291
246 593 453 830 l57 64 -38 39 c-20 21 -59 57 -86 80 l-49 41 -49 -53 c-166
-180 -348 -476 -447 -727 l-32 -81 -102 28 c-56 16 -107 31 -114 33 -18 7 23
118 112 301 130 268 272 469 485 689 424 437 942 703 1542 792 149 22 449 29
604 15 590 -55 1114 -284 1557 -679 l98 -87 -87 -83 -87 -82 -51 45 c-255 227
-495 378 -776 488 -203 80 -446 138 -647 155 l-92 8 -5 -41 c-13 -104 -13
-195 0 -195 37 0 260 -33 342 -51 401 -87 829 -332 1113 -638 l83 -89 177 149
c98 82 182 149 187 149 29 0 231 -299 326 -481 101 -192 205 -472 231 -620 12
-63 11 -63 134 -37 111 23 112 23 107 49 -5 25 -2 26 106 58 61 18 114 29 118
24 9 -9 44 -188 62 -318 8 -58 13 -199 13 -395 -1 -330 -11 -428 -70 -695
-167 -750 -645 -1448 -1296 -1895 l-87 -60 -55 93 c-31 52 -57 98 -59 105 -2
6 40 41 93 79 288 203 557 477 750 765 60 88 179 295 179 310 0 7 -192 108
-204 108 -2 0 -23 -35 -46 -77 -224 -416 -624 -824 -1024 -1043 -71 -39 -75
-43 -64 -63 6 -12 58 -104 115 -205 82 -143 102 -186 94 -196 -7 -8 -69 -40
-139 -71 -432 -195 -797 -279 -1269 -292 l-213 -6 0 24 c0 13 7 121 14 239 8
118 14 216 13 217 -1 0 -56 6 -122 13 -744 72 -1417 447 -1876 1046 -48 62
-57 80 -47 90 7 6 52 37 100 67 l87 56 54 -72 c92 -123 229 -268 345 -366 119
-101 320 -243 332 -236 4 3 62 92 129 200 67 107 124 195 126 195 2 0 31 -16
64 -35 202 -114 455 -195 704 -226 156 -19 464 -7 610 24 66 14 121 28 123 30
5 5 -45 198 -55 215 -4 7 -38 3 -95 -8 -531 -111 -1076 34 -1489 395 -247 217
-444 539 -526 860 -40 161 -54 297 -48 480 5 144 26 307 41 322 3 4 217 -55
223 -61 2 -2 -4 -50 -13 -107 -21 -137 -14 -373 16 -511 34 -160 107 -344 186
-470 l24 -38 99 66 98 65 -42 74 c-52 93 -99 210 -128 322 -19 77 -22 112 -21
288 0 183 3 208 27 297 58 219 168 409 327 568 112 112 211 183 353 250 396
190 859 150 1229 -105 66 -46 83 -54 94 -43 30 32 134 160 134 166 0 10 -133
102 -209 146 -495 286 -1150 245 -1607 -101 -192 -146 -400 -406 -470 -590 -9
-24 -23 -43 -31 -43 -16 0 -192 49 -210 59 -8 4 -1 31 26 91 293 655 991 1071
1695 1011 396 -34 721 -175 1033 -449 56 -49 187 -194 206 -227 5 -10 -44 -51
-175 -146 -101 -72 -187 -135 -192 -140 -5 -4 0 -22 11 -41 11 -18 43 -70 71
-116 28 -46 65 -124 83 -173 17 -49 35 -89 39 -89 16 0 205 52 212 58 9 9 -34
135 -77 229 l-34 73 90 61 c49 33 95 62 103 65 8 3 26 -23 51 -78 84 -182 133
-355 156 -542 17 -138 6 -402 -21 -531 -63 -299 -202 -577 -403 -806 -101
-115 -317 -296 -337 -284 -10 6 -122 197 -118 199 2 1 15 12 31 23 l27 21 -70
91 c-39 50 -73 91 -75 91 -2 0 -36 -21 -75 -46 -186 -120 -433 -194 -651 -194
-47 0 -88 2 -91 5 -4 4 9 101 27 203 l6 32 66 0 65 0 -6 88 c-4 48 -10 102
-13 120 l-5 32 -83 0 c-267 0 -525 161 -654 410 -62 119 -85 213 -84 350 1
214 73 390 219 535 155 156 351 232 569 222 125 -6 200 -23 300 -72 196 -94
345 -274 407 -491 28 -101 31 -276 5 -374 -24 -89 -84 -212 -142 -288 -50 -66
-147 -150 -227 -196 l-46 -27 24 -55 c40 -90 74 -154 82 -154 4 0 45 23 91 51
201 124 364 333 430 554 l22 70 112 -8 c61 -5 115 -12 120 -16 12 -12 -40
-177 -87 -277 -24 -50 -66 -124 -94 -166 l-50 -74 81 -64 c45 -35 87 -68 94
-72 15 -12 97 103 162 230 90 176 144 369 157 560 l7 90 -54 6 c-30 3 -135 11
-234 17 -99 6 -183 13 -186 15 -3 2 -9 41 -12 86 -7 104 -45 235 -98 341 -131
262 -362 448 -649 525 -132 35 -342 37 -473 4 -186 -46 -335 -130 -468 -262
-98 -97 -155 -177 -211 -296 -70 -149 -82 -214 -82 -419 0 -168 2 -186 28
-270 51 -169 122 -290 245 -418 110 -115 252 -204 414 -260 9 -4 17 -16 17
-27 0 -23 -30 -213 -34 -217 -3 -4 -127 39 -181 62 -59 26 -173 93 -234 139
-29 23 -62 47 -72 55 -20 14 -21 13 -140 -123 l-33 -39 41 -36 c113 -101 314
-211 483 -265 168 -54 272 -69 460 -69 191 1 304 19 471 78 57 20 113 38 124
41 17 5 44 -36 195 -292 96 -164 176 -303 178 -310 6 -23 -298 -141 -463 -179
-417 -97 -858 -73 -1237 65 -45 17 -82 29 -83 27 -16 -24 -83 -213 -78 -218
14 -12 182 -68 284 -94 201 -51 321 -67 574 -73 l240 -7 21 -228 c11 -125 23
-229 25 -231 7 -6 215 22 327 45 171 34 452 120 452 137 -1 21 -78 213 -86
212 -5 0 -70 -20 -144 -44 -175 -57 -339 -93 -350 -76 -8 13 -34 220 -29 224
2 1 51 12 109 25 280 61 565 186 825 362 385 260 726 676 895 1092 13 31 27
57 30 57 4 0 103 -36 221 -79 l214 -80 17 39 c52 113 128 438 152 650 16 134
22 521 10 568 -6 21 -11 23 -53 18 -25 -3 -77 -8 -114 -12 l-69 -7 7 -131 c9
-163 -8 -396 -41 -576 -26 -141 -49 -238 -58 -248 -3 -3 -55 10 -116 29 -107
33 -111 35 -105 59 55 214 79 405 79 630 0 275 -36 505 -119 755 -58 177 -180
440 -237 512 -7 9 -32 -2 -96 -43 -48 -30 -93 -58 -101 -63 -12 -7 -10 -14 7
-39 12 -16 53 -94 91 -172 359 -734 275 -1603 -219 -2266 -98 -131 -308 -340
-445 -442 -60 -45 -114 -81 -119 -79 -6 2 -36 47 -67 100 l-57 96 91 68 c110
81 276 239 360 343 406 503 539 1177 353 1792 -222 732 -848 1267 -1605 1372
-143 20 -389 20 -532 0 -231 -32 -432 -97 -648 -210 -68 -35 -127 -61 -131
-57 -45 52 -130 175 -125 183 10 16 195 117 290 158 120 52 289 107 405 133
88 19 282 48 323 49 14 0 17 10 17 68 0 37 -3 90 -6 117 l-6 51 -84 -8 c-314
-27 -647 -129 -933 -285 -91 -50 -266 -164 -320 -211 l-35 -29 134 -174 c73
-96 137 -179 142 -186 7 -8 -30 -51 -120 -140 -144 -142 -258 -289 -345 -446
-384 -692 -312 -1549 183 -2166 71 -88 209 -229 288 -293 17 -15 32 -30 32
-34 0 -10 -121 -194 -127 -194 -3 0 -39 29 -82 64 -344 289 -598 694 -711
1130 -47 185 -64 320 -65 529 0 158 -2 188 -15 191 -8 3 -60 8 -116 11 l-101
7 -6 -100 c-7 -119 6 -339 28 -477 41 -256 144 -561 256 -760 l30 -53 -28 -19
c-15 -11 -103 -66 -196 -122 -92 -57 -170 -107 -172 -112 -13 -19 147 -253
286 -419 424 -507 1020 -858 1668 -984 72 -15 143 -26 157 -26 l26 0 -7 -102
c-4 -57 -9 -111 -11 -120 -6 -22 -33 -22 -129 -4 -38 8 -71 13 -72 12 -1 -1
-13 -52 -26 -115 -18 -79 -21 -114 -13 -116 6 -3 52 -11 101 -19 359 -60 791
-54 1155 15 492 93 980 305 1373 597 l95 70 76 -89 c42 -48 76 -90 76 -93 0
-3 -47 -39 -105 -81 -335 -244 -750 -449 -1132 -559 -989 -284 -2029 -142
-2905 398 l-138 84 -66 -95 -67 -96 31 -26 32 -26 -58 -97 c-31 -54 -61 -98
-65 -98 -35 -1 -401 283 -577 448 l-75 70 -170 -169 -171 -169 -119 130 c-65
71 -122 130 -125 130 -10 0 -170 -142 -170 -151 0 -14 180 -208 299 -322 285
-273 599 -509 934 -702 64 -37 119 -66 121 -64 13 15 107 201 104 204 -3 3
-67 42 -144 88 -176 105 -266 165 -429 287 -136 103 -285 227 -285 238 0 4 35
45 78 91 l78 85 77 -67 c177 -154 462 -351 702 -485 145 -80 343 -174 354
-168 5 3 28 52 52 108 35 82 41 102 29 106 -43 15 -350 176 -350 184 0 9 110
198 115 198 2 0 94 -45 206 -99 450 -220 877 -338 1378 -382 177 -15 615 -7
781 15 149 20 430 76 554 111 49 13 90 24 91 22 6 -8 203 -682 201 -685 -11
-10 -275 -76 -426 -106 -327 -65 -589 -89 -935 -85 l-250 3 -8 -113 c-4 -62
-5 -116 -2 -120 15 -14 639 -4 785 13 80 9 170 19 200 22 l55 6 39 -231 c37
-215 41 -231 60 -231 38 0 368 70 521 110 128 33 453 135 462 144 3 3 -38 125
-67 202 l-9 23 -82 -30 c-156 -57 -635 -187 -646 -175 -3 3 -43 214 -43 227 0
4 35 15 78 24 683 147 1392 486 1945 928 65 52 163 134 217 182 l99 88 -80 89
-81 88 -57 -52 c-310 -287 -726 -567 -1116 -753 -133 -64 -414 -180 -419 -173
-5 6 -76 222 -73 224 1 1 61 25 132 53 72 28 198 84 280 124 150 74 385 204
385 214 0 3 -27 49 -61 103 l-61 98 -111 -66 c-138 -80 -374 -195 -525 -256
l-113 -45 -14 32 c-15 36 -60 178 -60 190 0 4 55 30 122 56 366 148 751 383
1056 646 70 60 77 69 64 83 -7 10 -78 90 -156 180 l-142 162 79 75 c302 284
597 716 772 1129 130 309 221 682 251 1034 15 177 7 531 -16 697 -46 338 -146
691 -275 972 l-38 82 99 56 c55 30 103 55 108 55 13 0 136 -294 187 -446 52
-157 106 -372 133 -532 11 -63 21 -116 24 -119 3 -2 41 0 84 6 154 22 143 18
143 56 0 24 5 35 18 38 50 14 203 39 208 34 10 -10 33 -197 45 -367 33 -465
-29 -994 -173 -1465 l-34 -111 107 -37 c58 -20 109 -37 112 -37 20 0 135 445
172 664 14 82 27 151 29 154 4 4 228 -18 233 -22 5 -4 -36 -241 -62 -364 -57
-272 -159 -593 -266 -839 -57 -131 -171 -361 -218 -441 l-30 -51 97 -57 c53
-31 100 -58 103 -60 7 -4 76 118 149 264 28 56 54 102 56 102 3 0 98 -43 211
-95 113 -52 209 -95 213 -95 20 0 161 354 243 607 54 163 153 540 145 548 -2
3 -54 15 -116 28 l-112 24 -5 -21 c-51 -240 -123 -486 -207 -713 l-60 -162
-31 13 c-18 8 -66 28 -107 46 -41 18 -76 34 -78 35 -2 2 21 71 52 153 104 281
182 572 231 867 26 156 57 416 51 423 -2 2 -108 14 -236 27 -128 13 -233 25
-234 27 -1 2 2 71 6 153 11 182 -4 512 -32 734 -122 951 -560 1834 -1247 2518
l-132 132 77 90 77 91 143 -143 c290 -288 511 -570 725 -927 131 -219 300
-585 383 -830 16 -47 29 -86 30 -88 3 -5 208 60 218 69 11 10 -62 215 -146
412 -114 270 -243 509 -404 755 -52 78 -94 145 -94 147 0 2 37 32 83 66 45 34
87 66 93 70 6 5 22 -8 42 -36 l31 -44 96 65 c52 36 95 68 95 71 0 8 -84 125
-174 243 -419 545 -966 1025 -1556 1365 -119 69 -525 275 -541 275 -11 0 -100
-215 -90 -218 5 -2 103 -50 217 -106 548 -272 1030 -627 1436 -1057 122 -129
308 -346 308 -358 -1 -5 -144 -115 -175 -133 -8 -5 -49 35 -116 115 -142 167
-345 374 -495 504 -68 59 -128 109 -133 111 -5 2 -77 -78 -160 -177 l-152
-180 -87 68 c-108 85 -226 167 -362 253 -125 78 -323 188 -339 188 -10 0 -116
-199 -109 -205 2 -1 49 -28 106 -59 496 -273 910 -621 1261 -1061 247 -309
456 -670 604 -1045 92 -232 197 -589 184 -623 -3 -7 -46 -21 -103 -31 -55 -11
-104 -21 -110 -23 -7 -3 -20 32 -34 89 -77 317 -204 643 -362 931 -53 98 -74
127 -86 122 -12 -4 -176 -100 -190 -111 -2 -1 3 -13 12 -26 15 -23 15 -24 -87
-80 -94 -52 -103 -56 -115 -40 -7 9 -48 71 -91 137 -43 66 -115 167 -160 225
-84 108 -310 361 -320 359 -3 -1 -41 -39 -84 -85 l-79 -84 87 -93 c241 -255
452 -567 587 -869 49 -108 113 -270 132 -334 6 -20 -2 -24 -105 -54 -61 -18
-114 -28 -118 -24 -4 5 -27 63 -51 129 -94 258 -274 575 -457 804 -94 119
-329 354 -443 445 -322 257 -739 466 -1100 551 -41 10 -78 20 -82 24 -8 7 25
217 35 228 9 8 167 -32 291 -74 55 -18 103 -30 107 -26 13 15 78 212 71 217
-24 14 -279 89 -392 114 -154 35 -297 58 -306 50 -3 -4 -13 -54 -21 -113 -13
-89 -13 -109 -2 -115 11 -7 10 -29 -5 -125 l-19 -117 -31 6 c-88 16 -337 28
-468 22 -408 -18 -744 -97 -1112 -263 -66 -29 -120 -52 -121 -50 -1 1 -28 47
-60 101 -49 85 -55 100 -41 108 13 8 9 23 -37 113 -28 58 -54 105 -57 105 -14
0 -236 -129 -335 -194 -172 -113 -327 -239 -483 -391 -142 -138 -302 -314
-302 -332 0 -12 157 -135 174 -137 6 0 60 54 119 121 122 138 247 256 404 382
111 88 273 201 289 201 5 0 25 -28 45 -63 20 -34 47 -79 58 -99 l22 -37 -89
-60 c-579 -389 -1012 -997 -1187 -1663 -76 -294 -100 -509 -92 -831 7 -287 36
-472 114 -741 19 -65 30 -122 26 -126 -12 -12 -206 -90 -211 -85 -12 12 -78
262 -107 410 -33 164 -65 409 -65 496 l0 41 -97 -6 c-54 -3 -108 -6 -120 -6
-21 0 -23 -5 -23 -52 0 -69 26 -291 51 -443 66 -396 207 -778 411 -1114 22
-35 38 -64 36 -66 -2 -1 -91 -57 -198 -125 -107 -67 -197 -124 -199 -126 -4
-4 102 -168 160 -245 l38 -51 -90 -75 c-49 -40 -94 -71 -99 -68 -6 3 -41 50
-78 103 -218 309 -400 665 -523 1021 l-51 148 -106 -33 c-58 -19 -108 -37
-111 -40 -8 -8 83 -272 143 -414 62 -146 184 -391 250 -503 25 -43 46 -82 46
-87 0 -9 -190 -133 -195 -128 -19 19 -137 233 -212 386 -57 116 -100 192 -106
189 -7 -3 -55 -24 -109 -47 l-96 -42 24 -54 24 -55 -106 -49 c-58 -28 -107
-50 -109 -50 -4 0 -78 170 -123 285 -72 183 -202 601 -202 650 0 19 4 20 -127
-11 l-111 -26 35 -131 c104 -400 285 -849 485 -1210 51 -91 58 -111 47 -121
-8 -7 -53 -36 -101 -64 l-87 -51 -49 87 c-133 234 -220 416 -324 677 -207 519
-335 1080 -377 1665 -17 226 0 934 23 957 3 3 367 -39 442 -52 l31 -5 7 72
c18 181 77 487 137 713 36 133 108 357 118 368 5 5 107 -28 227 -72 120 -44
219 -79 220 -78 1 1 28 67 59 147 109 277 274 594 436 838 119 178 261 362
274 354 6 -4 48 -38 93 -76 l81 -68 -61 -81 -61 -80 29 -24 c16 -12 60 -44 97
-70 l68 -47 17 25 c42 61 179 225 279 334 205 224 468 448 743 632 337 225
758 420 1125 523 44 12 83 24 86 26 6 3 -5 55 -42 195 l-9 37 -83 -24 c-45
-13 -154 -48 -242 -79 -88 -31 -169 -59 -180 -61 -18 -5 -27 9 -67 100 -54
123 -64 107 90 163 355 129 705 212 1107 260 117 14 227 18 497 18 l347 0 6
75 c3 41 8 92 11 112 5 36 5 37 -33 44 -21 4 -167 8 -325 8 l-288 1 -4 25 c-3
14 -8 67 -12 118 -6 91 -6 92 16 92 23 0 23 2 17 83 -4 45 -7 99 -7 120 l0 38
-77 -6 c-294 -23 -537 -57 -768 -106 -128 -28 -405 -98 -414 -105 -6 -5 61
-224 69 -224 5 0 66 16 136 35 202 55 674 145 766 145 18 0 23 -23 34 -156 l6
-82 -64 -7 c-372 -41 -862 -166 -1212 -310 -210 -85 -269 -114 -263 -128 3 -6
48 -103 100 -214 l95 -202 -142 -74 c-420 -220 -764 -474 -1097 -810 l-138
-138 -171 153 c-94 84 -175 154 -179 156 -9 3 -168 -184 -262 -308 -229 -301
-407 -607 -605 -1037 l-19 -42 -210 90 c-115 49 -215 89 -220 89 -13 0 -92
-209 -159 -419 -56 -175 -126 -457 -161 -645 -14 -77 -27 -142 -30 -144 -6 -7
-225 19 -229 27 -2 3 6 67 20 141 126 722 408 1429 820 2057 l93 143 -32 23
c-81 60 -151 107 -159 107 -13 0 -184 -265 -287 -444 -893 -1560 -1003 -3461
-296 -5121 642 -1509 1930 -2694 3493 -3215 398 -132 795 -217 1252 -267 237
-26 893 -26 1130 0 726 79 1330 251 1956 556 601 294 1077 634 1554 1111 215
214 332 346 495 555 381 489 700 1085 900 1678 273 814 362 1656 265 2511
-180 1566 -997 2989 -2270 3950 -293 221 -566 388 -915 561 -640 316 -1269
497 -1985 571 -181 18 -793 27 -970 14z"/>
<path d="M1861 9924 c-26 -22 -31 -33 -31 -70 0 -59 32 -94 87 -94 72 0 115
58 93 125 -21 64 -96 84 -149 39z"/>
<path d="M6327 6920 c-27 -5 -51 -10 -53 -12 -2 -2 10 -53 27 -114 l31 -109
72 0 c84 -1 145 -24 199 -79 62 -62 82 -110 82 -201 0 -70 -4 -87 -30 -133
-32 -59 -66 -91 -129 -125 -32 -17 -58 -22 -121 -22 -70 0 -87 4 -133 30 -92
51 -142 129 -150 236 l-4 66 -107 16 c-58 10 -109 17 -113 17 -14 0 -19 -98
-8 -165 34 -217 213 -398 432 -435 276 -48 551 151 598 431 43 256 -119 512
-370 583 -72 20 -163 27 -223 16z"/>
<path d="M6347 6480 c-72 -57 -26 -170 69 -170 41 0 84 51 84 98 0 76 -93 119
-153 72z"/>
<path d="M2348 3192 c-48 -37 -87 -70 -88 -74 0 -10 141 -176 264 -310 109
-120 351 -353 365 -353 5 0 42 38 82 84 l74 83 -211 212 c-115 116 -250 259
-299 319 -49 59 -91 107 -94 107 -3 0 -45 -31 -93 -68z"/>
</g>
</svg>
