<?xml version="1.0" encoding="utf-8"?>
<!-- Generator: Adobe Illustrator 13.0.0, SVG Export Plug-In . SVG Version: 6.00 Build 14948)  -->
<!DOCTYPE svg PUBLIC "-//W3C//DTD SVG 1.1//EN" "http://www.w3.org/Graphics/SVG/1.1/DTD/svg11.dtd">
<svg version="1.1" id="Calque_1" xmlns="http://www.w3.org/2000/svg" xmlns:xlink="http://www.w3.org/1999/xlink" x="0px" y="0px"
	 width="52.5px" height="48px" viewBox="0 0 52.5 48" enable-background="new 0 0 52.5 48" xml:space="preserve">
<g>
	<g>
		<g>
			<path d="M27.786,46.942l0.234-0.068h-0.238L27.786,46.942z M38.925,31.315c1.053-0.176,1.053-1.229,2.457-0.701
				c1.406,0.525,2.459,2.457,4.039,1.93c1.58-0.525,7.197-1.93,7.197-1.93c-0.234-0.141,0.012-0.41-0.322-0.41
				c-0.916,0.002-1.639,0.381-1.639,0.381h-0.906l1.229-0.674l0.234-0.643c0,0,0.699-0.168,0.994-0.322
				c0.225-0.117,0.072-0.227,0.059-0.264c-1.404,0.352-5.529,1.756-5.002,1.229c0.271-0.271,2.521-0.904,3.627-1.375l-0.205-0.381
				c0,0-4.037,1.055-2.633,0.176c1.404-0.877,2.283-1.229,2.283-1.229s0.35-0.703-0.703-0.703c-0.293,0-0.6,0.109-0.92,0.271
				c-0.83,0.416-1.754,1.184-2.768,1.309c-1.404,0.176-4.389-0.35-4.738-1.053c-0.352-0.701-1.23-0.527-1.23-0.527
				s9.129-6.495,9.48-7.899c0.352-1.405-1.053-1.229-1.053-1.229l-5.969-0.176c0,0,2.281-0.526,2.281-4.389
				s-7.021-1.405-7.549-2.809c-0.527-1.405-0.527-6.69-1.404-7.9c-0.877-1.209-6.145,0.703-7.9,1.58
				c-1.756,0.878-5.968-3.921-10.885-3.335c-3.452,0.585-2.984,7.374-3.862,9.129s-1.931,0.703-4.038,1.229
				c-2.106,0.526-3.511,0.351-3.862,2.458c-0.352,2.106,3.511,4.74,3.511,4.74s-4.74,0-5.969,0.703
				c-1.229,0.702-0.702,1.58-0.702,1.58L7.5,27.63c0,0,0,0-0.878,0.525c-0.878,0.527-0.351,1.055-0.176,2.283
				C6.622,31.667,7.5,31.843,7.5,31.843s0,0-3.336,2.107c-3.335,2.105-4.038,14.043-4.038,14.043l0.12-0.005l0.015-0.183l0.86-0.04
				v-0.349H0.925l0.21-0.211h0.351v-0.238h0.112v0.225h0.14v-0.955h0.449v1.123h0.281v-0.393h0.168v-0.563h0.309v0.871h0.252v0.396
				l0.141-0.006v-0.699h0.169v-0.365H3.76v0.393h0.168v0.309h0.253l0.183,0.184H4.209v0.146l0.38-0.015l0.097-0.006v-0.588h0.449
				v-0.533h0.196v1.085l0.238-0.014v-0.241H5.445l0.125-0.225h0.162v-0.162H5.87v0.113h0.474l0.149,0.174H6.344v0.25h0.274v-0.924
				h0.237v-0.611h0.437v1.111h0.212v0.404l0.162-0.009v-1.069h0.287l0.137-0.213v-0.811h0.562v1.646l0.237,0.25v0.134l0.22-0.009
				l0.204-0.467l0.113-1.148l0.124,1.148l0.21,0.438l0.306-0.014l-0.017-0.226h0.15v-1.996h0.599l0.16,2.02l0.278,0.121l0.085-0.006
				v-0.35h-0.196l0.21-0.211h0.351v-0.238H11.8v0.225h0.14v-0.953h0.449v1.121h0.281v-0.393h0.168v-0.561h0.309v0.869H13.4v0.357
				l0.14-0.01v-0.656h0.168v-0.365h0.253v0.395h0.168v0.309h0.253l0.182,0.182h-0.154v0.081l0.478-0.03v-0.514h0.449v-0.533h0.197
				v1.005l0.238-0.016V46.8h-0.125l0.125-0.225h0.163v-0.162h0.137v0.111h0.474l0.15,0.176h-0.15v0.207l0.275-0.018v-0.863h0.237
				v-0.611h0.437v1.109h0.213v0.309l0.162-0.011v-0.972h0.287l0.137-0.213v-0.811h0.562v0.996h0.192v0.854l0.045,0.048v0.221h0.235
				v-0.393h0.168v-0.563h0.309v0.871h0.253v0.351l0.14-0.002v-0.657h0.168v-0.365h0.252v0.393h0.168v0.311h0.253l0.182,0.182h-0.154
				v0.125l0.364-0.005l0.114-0.005V46.61h0.449v-0.535h0.197v1.089l0.238-0.009v-0.248h-0.125l0.125-0.225h0.163v-0.162h0.137v0.113
				h0.474l0.15,0.174h-0.15v0.25h0.275v-0.924h0.237v-0.611h0.436v1.111h0.212v0.449l0.162-0.006V45.96h0.287l0.138-0.213v-0.811
				h0.562v1.646l0.237,0.25v0.198l0.192-0.008l0.232-0.532l0.113-1.148l0.123,1.148l0.242,0.506l0.097-0.004l0.161-0.303h0.149
				v-1.996h0.599l0.127,2.174l0.289-0.01l0.107-0.031v-0.348h-0.195l0.211-0.211h0.35V46.03h0.113v0.225h0.139v-0.953h0.451v0.984
				l0.141-0.141h0.139V46.03h0.17V45.47h0.295v-0.293h0.449v0.854h0.125v-0.365h0.254v0.242h0.07v-0.563h0.309v0.871h0.252v0.422
				h0.057l0.084-0.004v-0.727h0.17v-0.365h0.252v0.393h0.168v0.152h0.014v-0.533h0.195v0.689h0.045l0.096,0.096l0.098-0.178h0.162
				v-0.162h0.139v0.111h0.01v-0.146h0.449v-0.535h0.197v1.107h0.092v-0.924h0.238v-0.611h0.436v0.986h0.246l0.129,0.149v-0.7h0.287
				l0.096-0.147v-0.413h0.041v-0.463h0.561v1.574h0.047v0.123l0.162,0.169v-0.966h0.287l0.137-0.213V44.29h0.563v1.646l0.236,0.25
				v0.193l0.195-0.009l0.229-0.526l0.113-1.148l0.125,1.148l0.238,0.496l0.236-0.011l0.023-0.286h0.15v-1.996h0.6l0.021,2.118
				l0.502-0.017v-0.316h-0.197l0.211-0.211h0.352v-0.238h0.111v0.225h0.141v-0.955h0.449v1.123h0.281v-0.393h0.168v-0.561h0.309
				v0.869h0.252v0.389l0.141-0.005v-0.692h0.17v-0.365h0.252v0.395h0.168v0.309h0.252l0.184,0.182h-0.154v0.145l0.477-0.016V45.44
				h0.449v-0.533h0.197v1.104l0.238-0.008v-0.264h-0.125l0.125-0.225h0.162v-0.162h0.137v0.111h0.475l0.15,0.174h-0.15v0.25h0.275
				v-0.924h0.236v-0.611h0.436v1.111h0.213v0.476l0.162-0.006V44.79h0.287l0.137-0.213v-0.811h0.266
				c-0.176-4.145-1.039-7.359-1.039-7.359C42.437,32.544,37.872,31.491,38.925,31.315z M29.247,46.425h0.127v-0.068h-0.127V46.425z
				 M32.616,46.427h-0.154v0.172l0.166-0.007v-0.206h-0.053L32.616,46.427z M34.597,46.411h0.129v-0.25h-0.129V46.411z
				 M31.507,46.638l-0.24,0.01v0.055l0.479-0.027v-0.047l-0.154,0.006v0.004H31.507z M30.257,46.761l0.141-0.008v-0.07l-0.141,0.006
				V46.761z M32.39,46.638l0.072-0.005v-0.034l-0.072,0.003V46.638z"/>
		</g>
	</g>
	<path fill="#FFFFFF" d="M15.751,8.318c0,0-0.175,1.405-0.526,2.984l0.878,0.351c0,0,0.526-1.404,0.351-2.984L15.751,8.318z"/>
	<path fill="#FFFFFF" d="M17.039,9.079c0,0,0,2.107-0.352,2.926l0.468,0.175c0,0,0.234-1.931,0.293-2.809L17.039,9.079z"/>
	<path fill="#FFFFFF" d="M12.892,19.027c0,0,4.993,1.675,6.896,1.671c0.703-0.004,0.85-0.004,0.627,0.836
		c-0.209,1.463-1.672,3.343-3.344,3.343c-1.671,0-3.344-0.836-4.806-4.597C12.265,20.281,11.639,19.027,12.892,19.027z"/>
	<path fill="#FFFFFF" d="M22.638,20.908c0,0,5.851,0.209,8.359-0.627c0,0,1.463-0.627,1.254,1.463
		c-0.209,2.089-3.752,4.74-5.852,4.806c-1.783,0.055-1.74-0.135-2.455-0.764C23.213,25.142,22.429,22.162,22.638,20.908z"/>
</g>
</svg>
