<?xml version="1.0" encoding="utf-8"?>
<!-- Generator: Adobe Illustrator 13.0.0, SVG Export Plug-In . SVG Version: 6.00 Build 14948)  -->
<!DOCTYPE svg PUBLIC "-//W3C//DTD SVG 1.1//EN" "http://www.w3.org/Graphics/SVG/1.1/DTD/svg11.dtd">
<svg version="1.1" id="Calque_1" xmlns="http://www.w3.org/2000/svg" xmlns:xlink="http://www.w3.org/1999/xlink" x="0px" y="0px"
	 width="157px" height="56px" viewBox="0 0 157 56" enable-background="new 0 0 157 56" xml:space="preserve">
<g>
	<path d="M15.444,41.834c-9.421,0-14.967-5.903-14.967-20.751c0-14.907,6.142-20.632,14.669-20.632c2.743,0,6.56,0.716,8.527,2.027
		c0,2.087-0.537,5.367-1.133,7.633c-2.207-1.431-4.592-2.207-6.738-2.207c-4.413,0-6.56,2.982-6.56,13.238
		c0,9.958,1.849,13.237,6.619,13.237c2.445,0,5.188-1.133,7.274-2.921c0.478,2.146,1.074,5.426,1.252,7.691
		C22.063,40.939,18.425,41.834,15.444,41.834z"/>
	<path fill="#DB191B" d="M29.911,19.548c-1.888,0-2.665-1.295-2.665-2.739c0-1.406,0.777-2.813,2.702-2.813
		c1.888,0,2.628,1.37,2.628,2.813C32.576,18.29,31.799,19.548,29.911,19.548z M27.542,41.238V21.917h4.738v19.321H27.542z"/>
	<path d="M46.656,41.813c-5.584,0-8.866-2.706-8.866-10.133V17.633h-2.591v-6.448h2.591V5.14c1.67-0.519,5.239-1.094,7.427-1.267
		v7.312h5.815c0,2.188-0.058,4.26-0.288,6.448h-5.527v14.048c0,2.476,0.806,3.224,2.533,3.224c1.094,0,2.418-0.461,3.512-1.209
		c0.403,2.016,0.749,4.549,0.864,6.736C50.744,41.295,48.499,41.813,46.656,41.813z"/>
	<path d="M66.493,40.313c-2.93,10.332-6.066,12.029-9.973,12.029c-1.439,0-2.981-0.463-4.061-1.131
		c0.154-1.954,0.565-4.062,1.028-5.964c0.977,0.565,1.799,0.874,2.879,0.874c1.182,0,1.902-0.514,2.57-2.673l0.72-2.364
		c-2.262-6.734-4.987-17.273-6.837-26.372c1.542-0.257,4.986-0.463,6.631-0.463l2.827,14.754c0.206,1.183,0.412,2.827,0.463,4.062
		h0.36c0.051-1.234,0.257-2.879,0.462-4.062l2.673-14.754c1.542,0,4.678,0.154,6.374,0.463
		C70.914,23.194,68.807,32.035,66.493,40.313z"/>
	<path fill="#DB191B" d="M86.825,55.451c-8.226,0-12.107-3.356-12.107-9.016c0-2.435,0.855-4.737,2.896-6.711
		c-0.79-1.316-1.711-3.094-2.04-4.672c0.395-1.975,1.776-4.409,3.619-7.502c-1.975-1.71-3.619-4.409-3.619-9.41
		c0-7.37,3.948-11.91,10.659-11.91c1.514,0,3.159,0.263,4.277,0.658h9.146c0,2.106-0.131,4.409-0.461,6.317l-2.829,0.329v0.461
		c0.658,1.118,1.119,2.829,1.119,4.803c0,7.831-4.54,11.384-10.397,11.384c-0.986,0-2.105-0.133-2.829-0.396
		c-0.658,1.315-1.185,2.435-1.185,3.093c0,0.986,0.526,1.25,1.382,1.25h6.383c5.265,0,9.146,2.237,9.146,9.476
		C99.985,50.977,95.313,55.451,86.825,55.451z M90.05,41.83h-7.106c-0.461,0.724-0.79,1.974-0.79,2.829
		c0,2.896,1.382,3.882,4.935,3.882c3.817,0,5.265-1.25,5.265-4.342C92.353,42.158,91.563,41.83,90.05,41.83z M86.563,12.68
		c-2.04,0-2.962,1.119-2.962,5.461c0,4.606,0.922,5.593,2.962,5.593c2.039,0,3.026-0.987,3.026-5.593
		C89.589,13.864,88.733,12.68,86.563,12.68z"/>
	<path d="M122.867,41.238V25.823c0-1.641-0.389-2.504-1.685-2.504c-0.95,0-1.684,0.389-2.461,0.993v16.926h-5.526V25.823
		c0-1.641-0.346-2.504-1.685-2.504c-0.82,0-1.641,0.389-2.461,0.993v16.926h-5.526V18.958c1.252-0.216,4.102-0.389,5.526-0.389v1.9
		h0.259c1.339-1.597,2.591-2.202,4.534-2.202c1.856,0,3.368,0.82,4.102,2.461c1.728-1.813,3.238-2.461,5.225-2.461
		c3.108,0,5.225,1.899,5.225,6.952v16.02H122.867z"/>
	<path fill="#DB191B" d="M152.163,41.875c-2.55,0-4.335-0.893-5.354-2.932h-0.318c-2.295,2.167-4.207,2.932-6.693,2.932
		c-4.59,0-7.841-2.996-7.841-9.753c0-6.948,3.315-9.434,9.562-9.816l3.952-0.255v-5.992c-1.147-0.701-2.805-1.083-4.462-1.083
		c-2.04,0-4.207,0.446-5.928,1.466c-0.511-2.104-0.957-5.354-0.957-7.713c2.104-0.893,4.845-1.402,7.713-1.402
		c4.08,0,8.861,1.083,11.475,3.697v21.482c0,1.02,0.318,1.339,1.211,1.339h2.231v2.613
		C156.753,40.026,155.159,41.875,152.163,41.875z M145.47,27.15l-2.805,0.255c-1.976,0.191-2.805,1.083-2.805,4.398
		c0,3.123,0.956,3.888,2.677,3.888c1.021,0,1.913-0.382,2.933-1.02V27.15z"/>
</g>
</svg>
